HIERARCHY
ROOT hip
{
  OFFSET 0.0 0.0 0.0
  CHANNELS 6 Xposition Yposition Zposition Zrotation Yrotation Xrotation
  JOINT torso
  {
    OFFSET 0.0 0.0 0.0
    CHANNELS 3 Zrotation Xrotation Yrotation
    JOINT neck
    {
      OFFSET -8.059630999999968 325.56260699999996 64.6221310000002
      CHANNELS 3 Zrotation Xrotation Yrotation
      JOINT head
      {
        OFFSET 34.685424000000125 375.1179809999999 232.79357900000002
        CHANNELS 3 Zrotation Xrotation Yrotation
        End Site
        {
          OFFSET 0.0 0.0 0.0
        }
      }
    }
    JOINT left_collar
    {
      OFFSET -8.059630999999968 325.56260699999996 64.6221310000002
      CHANNELS 3 Zrotation Xrotation Yrotation
      JOINT left_upper_arm
      {
        OFFSET -124.124665 -15.370300999999927 25.582641999999964
        CHANNELS 3 Zrotation Xrotation Yrotation
        JOINT left_forearm
        {
          OFFSET -268.19913399999996 105.06054699999993 114.74548300000004
          CHANNELS 3 Zrotation Xrotation Yrotation
          JOINT left_hand
          {
            OFFSET -235.82003099999991 -10.198180999999977 -38.67455999999993
            CHANNELS 3 Zrotation Xrotation Yrotation
            End Site
            {
              OFFSET 0.0 0.0 0.0
            }
          }
        }
      }
    }
    JOINT right_collar
    {
      OFFSET -8.059630999999968 325.56260699999996 64.6221310000002
      CHANNELS 3 Zrotation Xrotation Yrotation
      JOINT right_upper_arm
      {
        OFFSET 162.73931899999997 -2.8598030000000563 26.244994999999903
        CHANNELS 3 Zrotation Xrotation Yrotation
        JOINT right_forearm
        {
          OFFSET 284.6506340000001 103.07031299999994 145.84521499999994
          CHANNELS 3 Zrotation Xrotation Yrotation
          JOINT right_hand
          {
            OFFSET 226.332337 -12.198241999999937 -49.27258299999994
            CHANNELS 3 Zrotation Xrotation Yrotation
            End Site
            {
              OFFSET 0.0 0.0 0.0
            }
          }
        }
      }
    }
  }
}
MOTION
Frames: 6
Frame Time: 0.01
392.08195065058794 223.31419506701687 783.6445441256 -0.9837779397735782 1.828589940184362 0.0003386815378956833 0.8652074039700635 -3.607396598034112 -0.2865840145269577 2.4389061963310024 -0.7327257939054592 -1.452924784385421 0.0 0.0 0.0 0.3074209062671596 0.1571790887380413 -0.739498432923178 -1.034082563288202 2.110531084874663 6.472965173212947 -1.2183847765202724 0.3278997982695245 -3.987637680897281 0.0 0.0 0.0 -0.9054265962379245 0.15044078265154573 0.17124616252400784 5.2655902396107015 0.10938762373986283 -6.879493048858847 -2.0215098286507147 -0.47838310533426004 -0.5217901814058729 0.0 0.0 0.0
392.11686905808045 223.29221011757895 783.7576147728573 -0.9846266716198085 1.821084471749094 0.0006476205990801938 0.8631860033956902 -3.6071404290844398 -0.28611367463522697 2.4275939545234837 -0.7280654722401976 -1.4462516059954102 0.0 0.0 0.0 0.3068833178815581 0.15723648359694234 -0.7408522670133735 -1.0408094117940734 2.103324782174409 6.460514369922234 -1.226146601768298 0.32895130722565863 -3.989385340457157 0.0 0.0 0.0 -0.9048851070449637 0.1504710755581304 0.17585783473716485 5.2536694732004205 0.11574188348787323 -6.8820506696243156 -1.9923411349125566 -0.47016306777639083 -0.4980582872151827 0.0 0.0 0.0
392.15240218132215 223.27111994437485 783.8703382523686 -0.9854432926133452 1.813677262031956 0.0009401959699927518 0.8611434291935376 -3.606912112788291 -0.2856393827233058 2.4163552799313623 -0.7234881593579079 -1.4396181516002666 0.0 0.0 0.0 0.3062040905777763 0.15727075429539608 -0.7422617907218692 -1.0472126002991564 2.0961641342049107 6.447888831321559 -1.2338561721824377 0.32997636654022444 -3.990520632487439 0.0 0.0 0.0 -0.9042240795945607 0.15047933385275067 0.18037164669344047 5.241616447414823 0.12219202494924641 -6.884702651071586 -1.9642243048434405 -0.4621493875815366 -0.4737595479053785 0.0 0.0 0.0
392.1889730822187 223.250824093122 783.982943877957 -0.9862588692089531 1.8063735513702717 0.001165727423550433 0.8590687142549926 -3.606702560754008 -0.2851583425374487 2.4052335377990155 -0.7191171772180776 -1.433041672426385 0.0 0.0 0.0 0.3053826139116447 0.15727512576508992 -0.7436747291140416 -1.0530115531085464 2.089238190008041 6.435318315436867 -1.2420358814756138 0.33106776903643065 -3.99185131385812 0.0 0.0 0.0 -0.903414951665781 0.1504582308710397 0.18468406087482803 5.229348621906265 0.12872860513485312 -6.887334289379854 -1.9370973975906138 -0.4542964852004609 -0.4484547781743479 0.0 0.0 0.0
392.22705007681975 223.2311564833088 784.095765610903 -0.9871141187890933 1.79917653653403 0.001263116528789732 0.8569526559761631 -3.6065060253202232 -0.2846682674881138 2.394267338279429 -0.7150832730884463 -1.4265358423122745 0.0 0.0 0.0 0.3044239190977971 0.15724429799341552 -0.7450409440722703 -1.0579095192320902 2.08276102524653 6.423081717951192 -1.2512747916974476 0.3323299937706488 -3.9942925004636187 0.0 0.0 0.0 -0.9024339882396901 0.15040126707801982 0.18869311617825535 5.216782616288694 0.13533907657620114 -6.889822124324958 -1.9108335449899323 -0.44654054222070066 -0.4216448615060009 0.0 0.0 0.0
392.26713259547097 223.21188400811783 784.2092321860307 -0.9880592822181794 1.7920882541585597 0.0011625580107802154 0.8547884955362305 -3.606320661595317 -0.28416755341378885 2.3834904447259255 -0.7115229996083449 -1.4201108281817851 0.0 0.0 0.0 0.30333937684864676 0.15717485141014947 -0.746314448323453 -1.0615993027045976 2.076969300561588 6.411506058035649 -1.262220651329944 0.3338777334499719 -3.9988570555134606 0.0 0.0 0.0 -0.9012638248282709 0.15030307730408682 0.19230048269573194 5.203836824192327 0.1420074849301787 -6.892036060467206 -1.8852370926426107 -0.4387994154002319 -0.3927797245757252 0.0 0.0 0.0
